<svg xmlns="http://www.w3.org/2000/svg" viewBox="0 0 48 48">
  <path d="M 24.00 3.80 A 6.1 6.1 0 0 1 34.10 6.51 A 6.1 6.1 0 0 1 41.49 13.90 A 6.1 6.1 0 0 1 44.20 24.00 A 6.1 6.1 0 0 1 41.49 34.10 A 6.1 6.1 0 0 1 34.10 41.49 A 6.1 6.1 0 0 1 24.00 44.20 A 6.1 6.1 0 0 1 13.90 41.49 A 6.1 6.1 0 0 1 6.51 34.10 A 6.1 6.1 0 0 1 3.80 24.00 A 6.1 6.1 0 0 1 6.51 13.90 A 6.1 6.1 0 0 1 13.90 6.51 A 6.1 6.1 0 0 1 24.00 3.80 Z" fill="#534AB7"/>
  <circle cx="24" cy="24" r="16.6" fill="none" stroke="rgba(255,255,255,0.28)" stroke-width="0.9"/>
  <circle cx="24" cy="24" r="15.1" fill="none" stroke="#C9A227" stroke-width="1.1" opacity="0.9"/>
  <text x="21.6" y="31.6" text-anchor="middle" font-size="21.5" font-weight="600" font-family="Georgia, 'Times New Roman', serif" fill="#ffffff">C</text>
  <g fill="#C9A227">
    <rect x="27.9" y="26.4" width="2.1" height="3.1" rx="0.55"/>
    <rect x="30.8" y="24.4" width="2.1" height="5.1" rx="0.55"/>
    <rect x="33.7" y="22.4" width="2.1" height="7.1" rx="0.55"/>
  </g>
</svg>
